<svg id="canvas" height="auto" xmlns="http://www.w3.org/2000/svg" version="1.1" xmlns:xlink="http://www.w3.org/1999/xlink" viewBox="0 0 900 512" width="auto" style="width: auto; height: auto;"><rect width="900" height="512" fill="#151e15ff"/><path d="M96.83340327544823 277.2515083035669C60.03806385763187 290.94691879515085 8.531568606601923 270.0251272012947 -34.32803901304277 268.82729971490426C-77.18764663268746 267.6294722285138 -126.25525587062532 275.7626103401018 -160.32424244241992 270.0645433852244C-194.3932290142145 264.366476430347 -209.45251488518312 256.9227492741412 -238.7419584438104 234.6388979856397C-268.0314020024377 212.35504669713816 -317.87534824412387 180.2996650043259 -336.0609037941837 136.36143565421514C-354.2464593442435 92.42320630410438 -347.5121867610542 19.894526656210985 -347.8552917441691 -28.990478115024985C-348.19839672728403 -77.87548288626095 -356.4462465961752 -122.16631015023646 -338.11953369287306 -156.9485929732008C-319.79282078957095 -191.73087579616512 -271.60970923267337 -207.96248066088722 -237.89501432435642 -237.68417505281093C-204.18031941603945 -267.40586944473466 -174.56425134839515 -316.62081479698986 -135.83136424297126 -335.2787593247431C-97.09847713754738 -353.9367038524963 -50.058153733430004 -349.49424154807645 -5.497691691813145 -349.6318422193301C39.06277034980371 -349.7694428905838 93.00539309198831 -352.99919263773234 131.53140800672998 -336.1043633522651C170.0574229214717 -319.2095340667979 195.25533850852378 -279.95288210523404 225.6583977966369 -248.26286650652685C256.06145708475003 -216.57285090781969 309.40953494608743 -180.26242114590758 313.9497637354086 -145.9642697600221C318.4899925247298 -111.6661183741366 262.9286798927777 -80.18871185641422 252.8997705325644 -42.47395819121397C242.87086117235106 -4.759204526013718 264.85226974724685 42.136119738410514 253.77630757412874 80.32425223117957C242.70034540101062 118.51238472394863 212.6011482103022 153.83362742000247 186.44399749385548 186.65483676540032C160.28684677740875 219.47604611079817 133.6287426932646 263.5560978119829 96.83340327544823 277.2515083035669C60.03806385763187 290.94691879515085 8.531568606601923 270.0251272012947 -34.32803901304277 268.82729971490426 " fill="#9cd67dff"/><path d="M992.9702001327702 881.926806141226C961.607028296726 908.4438596740982 941.2167148954611 950.3437376255991 903.036992733618 961.7560633385349C864.857270571775 973.1683890514706 804.6553264234475 965.7614101755967 763.8918671617116 950.4007604188405C723.1284078999756 935.0401106620843 691.1862195847391 901.1749089267955 658.4562371632023 869.5921647979978C625.7262547416655 838.0094206692002 585.5534104842319 806.8463638684434 567.5119726324906 760.9042956460542C549.4705347807494 714.962227423665 550.5349699890014 643.6483018700523 550.2076100527546 593.9397554636626C549.8802501165078 544.2312090572727 548.0952546344186 500.58286333037233 565.5478130150102 462.6530172077157C583.0003713956017 424.723171085059 624.9000314986446 397.4189073668297 654.922960336304 366.3606787277224C684.9458891739632 335.3024500886151 703.4403951601741 292.33547046725704 745.685386040966 276.30364537307184C787.9303769217579 260.27182027888665 857.7425282411868 269.7276096541145 908.392905621055 270.16972816261136C959.043283000923 270.61184667110825 1014.6366646668681 261.90369182268097 1049.5876503201744 278.95635642405307C1084.5386359734807 296.00902102542517 1090.853306626009 341.1420598546237 1118.0988195408922 372.485715770844C1145.3443324557754 403.82937168706434 1188.747093845218 424.4770089937532 1213.0607278094733 467.01829192137495C1237.3743617737287 509.5595748489967 1255.4122133213586 576.9110578935538 1263.9806233264235 627.7334133365744C1272.5490333314883 678.5557687795949 1293.2652877692854 742.7990364453774 1264.471187839862 771.9524245794986C1235.6770879104388 801.1058127136198 1136.4661883677322 784.3246785476804 1091.2160237498838 802.6537421413016C1045.965859132035 820.9828057349227 1024.3333719688144 855.4097526083539 992.9702001327702 881.926806141226C961.607028296726 908.4438596740982 941.2167148954611 950.3437376255991 903.036992733618 961.7560633385349 " fill="#9cd67dff" transform="matrix(-1,1.2246467991473532e-16,-1.2246467991473532e-16,-1,1829.2320556640625,1234.2979736328125)"/><path d="M270.43832599820655 1046.3587080885522C231.69408683944567 1057.6403144295023 177.09347197282852 1034.5743277354622 133.93134285873737 1031.3181520401681C90.76921374464621 1028.061976344874 44.27442974575774 1026.4300000094045 11.465551313659773 1026.8216539167865C-21.343327118438197 1027.2133078241686 -34.726652075773615 1050.3599651283007 -62.92192773385037 1033.6680754844606C-91.11720339192713 1016.9761858406207 -139.0278341008886 968.9729290321833 -157.7061026348008 926.6703160537468C-176.384371168713 884.3677030753103 -174.9390596556665 827.8384485364431 -174.99153893732347 779.8523976138416C-175.04401821898043 731.8663466912401 -174.15870742385073 682.218314813696 -158.0209783247426 638.7540105181378C-141.88324922563447 595.2897062225794 -107.41631485627217 552.8177622203206 -78.16516434267473 519.0665718404919C-48.914013829077305 485.31538146066316 -24.754891321628804 451.8670392628325 17.485924756841996 436.24686823916556C59.726740835312796 420.6266972154986 125.93257505402136 424.94469659033194 175.27973212815016 425.34554569849007C224.62688920227896 425.7463948066482 268.29886635301807 420.01191926826004 313.5688672016147 438.65196288811427C358.8388680502113 457.2920065079685 408.4858466657554 502.7236540272594 446.8997372197299 537.1858074176153C485.3136277737044 571.6479608079712 530.1177196654625 604.6579321354843 544.0522105254618 645.4248832302496C557.9867013854611 686.1918343250147 533.3511788059836 735.4205881816961 530.5066823797256 781.7875139862067C527.6621859534675 828.1544397907172 554.3368827293173 893.3196047226027 526.9852319679135 923.6264380573131C499.6335812065097 953.9332713920234 409.1545954729204 943.1731356559288 366.3967778113026 963.6285139944687C323.6389601496848 984.0838923330085 309.1825651569674 1035.0771017476022 270.43832599820655 1046.3587080885522C231.69408683944567 1057.6403144295023 177.09347197282852 1034.5743277354622 133.93134285873737 1031.3181520401681 " fill="#9cd67dff"/><path d="M867.3727426988069 162.03599353588038C827.0082034931679 179.92779910837055 772.5407137375616 173.09989835387535 725.7897024701538 172.48303694703372C679.0386912027459 171.8661755401921 627.311545539709 173.1682128109751 586.8666750943596 158.33482509483042C546.4218046490103 143.50143737868575 515.7516046987807 114.16830671114371 483.1204797980579 83.4827106501657C450.48935489733515 52.797114589187686 409.0327438210601 22.49593561615211 391.07992569002306 -25.77875127103789C373.12710755898604 -74.05343815822783 375.88623362699934 -154.80380616577008 375.40357101183565 -206.16541067297408C374.92090839667196 -257.52701518017807 372.6065875638886 -295.9797819982334 388.1839499990411 -333.94837831426173C403.7613124341936 -371.91697463029004 439.2782478035332 -403.7929948228168 468.8677456227507 -433.97698856914377C498.4572434419682 -464.16098231547073 522.9072669264981 -500.15109927788416 565.7209369143463 -515.0523407922235C608.5346069021946 -529.9535823065628 675.9270034142494 -523.818506361324 725.7497655498403 -523.3844376551795C775.5725276854309 -522.950368949035 832.1086077581562 -529.7466376720998 864.6575097278909 -512.4479285553562C897.2064116976256 -495.1492194386126 895.8701772019903 -449.9047447993374 921.0431773682486 -419.59218295471794C946.216177534507 -389.27962111009856 988.9205047830635 -371.3846389771211 1015.6955107254408 -330.57255748763964C1042.4705166678182 -289.7604759981583 1073.363720193956 -223.9979583334744 1081.6932130225127 -174.71969401782968C1090.0227058510695 -125.44142970218496 1084.6251802498691 -74.87828784875825 1065.6724676967817 -34.90297159377121C1046.7197551436943 5.07234466121588 1001.0268918703168 32.30904265715071 967.9769377039877 65.13220351209259C934.9269835376585 97.95536436703446 907.7372819044459 144.1441879633902 867.3727426988069 162.03599353588038C827.0082034931679 179.92779910837055 772.5407137375616 173.09989835387535 725.7897024701538 172.48303694703372 " fill="#9cd67dff"/></svg>