<?xml version="1.0" encoding="UTF-8" standalone="no"?>
<!-- Created with Inkscape (http://www.inkscape.org/) -->
<svg xmlns:dc="http://purl.org/dc/elements/1.1/" xmlns:cc="http://creativecommons.org/ns#" xmlns:rdf="http://www.w3.org/1999/02/22-rdf-syntax-ns#" xmlns:svg="http://www.w3.org/2000/svg" xmlns="http://www.w3.org/2000/svg" xmlns:sodipodi="http://sodipodi.sourceforge.net/DTD/sodipodi-0.dtd" xmlns:inkscape="http://www.inkscape.org/namespaces/inkscape" width="90.994499" height="38.73135" id="svg4445" version="1.1" inkscape:version="0.48.2 r9819" sodipodi:docname="Nouveau document 6">
  <defs id="defs4447"/>
  <sodipodi:namedview id="base" pagecolor="#ffffff" bordercolor="#666666" borderopacity="1.0" inkscape:pageopacity="0.0" inkscape:pageshadow="2" inkscape:zoom="4.3768229" inkscape:cx="37.100748" inkscape:cy="19.36573" inkscape:document-units="px" inkscape:current-layer="layer1" showgrid="false" fit-margin-top="0" fit-margin-left="0" fit-margin-right="0" fit-margin-bottom="0" inkscape:window-width="1366" inkscape:window-height="706" inkscape:window-x="-8" inkscape:window-y="-8" inkscape:window-maximized="1"/>
  <metadata id="metadata4450">
    <rdf:RDF>
      <cc:Work rdf:about="">
        <dc:format>image/svg+xml</dc:format>
        <dc:type rdf:resource="http://purl.org/dc/dcmitype/StillImage"/>
        <dc:title/>
      </cc:Work>
    </rdf:RDF>
  </metadata>
  <g inkscape:label="Calque 1" inkscape:groupmode="layer" id="layer1" transform="translate(-310.88759,-613.17149)">
    <path inkscape:connector-curvature="0" d="m 329.44834,627.33161 -11.38,11.38 0.46375,0.465 11.37875,-11.3825 -0.4625,-0.4625 z" style="fill:#39a642;fill-opacity:1;fill-rule:nonzero;stroke:none" id="path308"/>
    <path inkscape:connector-curvature="0" d="m 328.52309,626.40449 -11.38,11.38 0.46125,0.465 11.38125,-11.38125 -0.4625,-0.46375 z" style="fill:#39a642;fill-opacity:1;fill-rule:nonzero;stroke:none" id="path312"/>
    <path inkscape:connector-curvature="0" d="m 327.59672,625.47974 -11.38,11.38125 0.46375,0.4625 11.37875,-11.38125 -0.4625,-0.4625 z" style="fill:#39a642;fill-opacity:1;fill-rule:nonzero;stroke:none" id="path316"/>
    <path inkscape:connector-curvature="0" d="m 326.67134,624.55386 -11.38125,11.38 0.465,0.465 11.37875,-11.38125 -0.4625,-0.46375 z" style="fill:#39a642;fill-opacity:1;fill-rule:nonzero;stroke:none" id="path320"/>
    <path inkscape:connector-curvature="0" d="m 325.74484,623.62736 -11.38,11.38 0.46375,0.465 11.38,-11.38125 -0.46375,-0.46375 z" style="fill:#39a642;fill-opacity:1;fill-rule:nonzero;stroke:none" id="path324"/>
    <path inkscape:connector-curvature="0" d="m 324.81821,622.70211 -11.37875,11.38125 0.4625,0.4625 11.38125,-11.38125 -0.465,-0.4625 z" style="fill:#39a642;fill-opacity:1;fill-rule:nonzero;stroke:none" id="path328"/>
    <path inkscape:connector-curvature="0" d="m 328.40722,615.18011 -5.095,5.09375 11.38125,11.38125 c 0.59125,-0.59125 4.50375,-4.50375 5.09375,-5.09625 l -11.38,-11.37875 z" style="fill:#39a642;fill-opacity:1;fill-rule:nonzero;stroke:none" id="path332"/>
    <path inkscape:connector-curvature="0" d="m 335.46659,621.31224 0.46375,0.465 3.5175,-3.51875 0,-0.92625 -3.98125,3.98 z" style="fill:#39a642;fill-opacity:1;fill-rule:nonzero;stroke:none" id="path336"/>
    <path inkscape:connector-curvature="0" d="m 334.34946,613.17149 c -0.0613,0.0625 -1.9325,1.9325 -1.9325,1.9325 l -1.58125,1.58125 0.46625,0.4625 3.9725,-3.97625 -0.925,0 z" style="fill:#39a642;fill-opacity:1;fill-rule:nonzero;stroke:none" id="path340"/>
    <path inkscape:connector-curvature="0" d="m 334.54009,620.38699 0.46375,0.46375 4.44375,-4.44375 0,-0.92625 -4.9075,4.90625 z" style="fill:#39a642;fill-opacity:1;fill-rule:nonzero;stroke:none" id="path344"/>
    <path inkscape:connector-curvature="0" d="m 333.61596,619.46236 0.4625,0.4625 5.36875,-5.36875 0,-0.9275 -5.83125,5.83375 z" style="fill:#39a642;fill-opacity:1;fill-rule:nonzero;stroke:none" id="path348"/>
    <path inkscape:connector-curvature="0" d="m 338.05434,613.17149 -5.36625,5.365 0.465,0.4625 5.82625,-5.8275 -0.925,0 z" style="fill:#39a642;fill-opacity:1;fill-rule:nonzero;stroke:none" id="path352"/>
    <path inkscape:connector-curvature="0" d="m 336.20147,613.17149 -4.4375,4.4375 0.46125,0.46375 4.90125,-4.90125 -0.925,0 z" style="fill:#39a642;fill-opacity:1;fill-rule:nonzero;stroke:none" id="path356"/>
    <path inkscape:connector-curvature="0" d="m 338.04709,620.58299 1.4,1.3975 0,-2.795 -1.4,1.3975 z" style="fill:#39a642;fill-opacity:1;fill-rule:nonzero;stroke:none" id="path360"/>
    <path inkscape:connector-curvature="0" d="m 330.63747,613.17149 1.3925,1.395 1.395,-1.395 -2.7875,0 z" style="fill:#39a642;fill-opacity:1;fill-rule:nonzero;stroke:none" id="path364"/>
    <path inkscape:connector-curvature="0" d="m 325.51297,633.11836 -5.09375,5.095 11.38125,11.38 c 0.59,-0.59 4.50125,-4.50375 5.09375,-5.095 l -11.38125,-11.38 z" style="fill:#0072ba;fill-opacity:1;fill-rule:nonzero;stroke:none" id="path368"/>
    <path inkscape:connector-curvature="0" d="m 319.69634,623.58461 -8.80875,0 0,8.80875 1.85625,-1.855 1.6575,1.6575 5.095,-5.095 -1.57875,-1.735 1.77875,-1.78125 z" style="fill:#0072ba;fill-opacity:1;fill-rule:nonzero;stroke:none" id="path372"/>
    <path inkscape:connector-curvature="0" d="m 346.30621,630.22462 -11.38,11.38125 0.4625,0.4625 11.38125,-11.37875 -0.46375,-0.465 z" style="fill:#0072ba;fill-opacity:1;fill-rule:nonzero;stroke:none" id="path376"/>
    <path inkscape:connector-curvature="0" d="m 345.38109,629.29874 -11.38,11.38 0.46375,0.46375 11.38,-11.38125 -0.46375,-0.4625 z" style="fill:#0072ba;fill-opacity:1;fill-rule:nonzero;stroke:none" id="path380"/>
    <path inkscape:connector-curvature="0" d="m 344.45459,628.37349 -11.37875,11.38 0.4625,0.46125 11.37875,-11.37875 -0.4625,-0.4625 z" style="fill:#0072ba;fill-opacity:1;fill-rule:nonzero;stroke:none" id="path384"/>
    <path inkscape:connector-curvature="0" d="m 343.53046,627.44699 -11.38125,11.38 0.465,0.465 11.3775,-11.3825 -0.46125,-0.4625 z" style="fill:#0072ba;fill-opacity:1;fill-rule:nonzero;stroke:none" id="path388"/>
    <path inkscape:connector-curvature="0" d="m 342.60521,626.52161 -11.38125,11.38 0.4625,0.4625 11.38,-11.38 -0.46125,-0.4625 z" style="fill:#0072ba;fill-opacity:1;fill-rule:nonzero;stroke:none" id="path392"/>
    <path inkscape:connector-curvature="0" d="m 341.67746,625.59574 -11.38,11.38 0.46375,0.465 11.3775,-11.3825 -0.46125,-0.4625 z" style="fill:#0072ba;fill-opacity:1;fill-rule:nonzero;stroke:none" id="path396"/>
    <path inkscape:connector-curvature="0" d="m 328.90509,647.62512 -3.9775,3.98125 0.925,0 3.515,-3.51625 -0.4625,-0.465 z" style="fill:#0072ba;fill-opacity:1;fill-rule:nonzero;stroke:none" id="path400"/>
    <path inkscape:connector-curvature="0" d="m 324.27634,642.99561 c -0.325,0.325 -1.58,1.58 -1.58,1.58 l -1.9325,1.93375 0,0.925 3.975,-3.97375 c -0.11875,-0.12 -0.34375,-0.34625 -0.4625,-0.465" style="fill:#0072ba;fill-opacity:1;fill-rule:nonzero;stroke:none" id="path404"/>
    <path inkscape:connector-curvature="0" d="m 327.98122,646.70112 -4.90625,4.905 0.925,0 4.44375,-4.44375 -0.4625,-0.46125 z" style="fill:#0072ba;fill-opacity:1;fill-rule:nonzero;stroke:none" id="path408"/>
    <path inkscape:connector-curvature="0" d="m 327.05346,645.77336 -5.83125,5.8325 0.925,0 5.37125,-5.36875 -0.465,-0.46375 z" style="fill:#0072ba;fill-opacity:1;fill-rule:nonzero;stroke:none" id="path412"/>
    <path inkscape:connector-curvature="0" d="m 326.12922,644.84686 -5.365,5.36375 0,0.9275 5.82625,-5.82625 -0.46125,-0.465 z" style="fill:#0072ba;fill-opacity:1;fill-rule:nonzero;stroke:none" id="path416"/>
    <path inkscape:connector-curvature="0" d="m 325.20409,643.92162 -4.44,4.44 0,0.925 4.90125,-4.90125 -0.46125,-0.46375 z" style="fill:#0072ba;fill-opacity:1;fill-rule:nonzero;stroke:none" id="path420"/>
    <path inkscape:connector-curvature="0" d="m 328.17534,650.20811 -1.3975,1.3975 2.79625,0 -1.39875,-1.3975 z" style="fill:#0072ba;fill-opacity:1;fill-rule:nonzero;stroke:none" id="path424"/>
    <path inkscape:connector-curvature="0" d="m 320.76446,642.79612 0,2.7875 1.3925,-1.395 -1.3925,-1.3925 z" style="fill:#0072ba;fill-opacity:1;fill-rule:nonzero;stroke:none" id="path428"/>
    <path inkscape:connector-curvature="0" d="m 356.28684,627.67161 -1.215,0.355 -0.62875,-3.8175 c -0.07,-0.415 -0.25375,-0.70875 -0.555,-0.88125 -0.30875,-0.1625 -0.68125,-0.20875 -1.115,-0.13625 -0.4975,0.0813 -0.89,0.275 -1.18875,0.57625 -0.30375,0.30375 -0.4175,0.67125 -0.3475,1.10125 l 0.585,3.54 -1.19875,0.3525 -1.325,-8.02 1.1975,-0.36375 0.46375,2.80125 c 0.295,-0.2925 0.5875,-0.525 0.88125,-0.69 0.28,-0.1675 0.61375,-0.2825 0.99375,-0.345 0.8,-0.1325 1.45375,-0.0112 1.97,0.36375 0.475,0.34125 0.76875,0.8375 0.8775,1.495 l 0.605,3.66875 z" style="fill:#0072ba;fill-opacity:1;fill-rule:nonzero;stroke:none" id="path432"/>
    <path inkscape:connector-curvature="0" d="m 362.43071,624.43849 c -0.0637,-0.3125 -0.275,-0.54 -0.6325,-0.68 -0.36625,-0.1325 -0.7375,-0.1625 -1.10625,-0.0875 -0.415,0.0825 -0.7525,0.24 -1.01875,0.47 -0.31375,0.27125 -0.4375,0.57375 -0.36875,0.91 0.0788,0.39875 0.29125,0.6625 0.64,0.7925 0.30625,0.1125 0.70125,0.12125 1.18875,0.025 0.405,-0.0825 0.74375,-0.25625 1.01125,-0.52125 0.26,-0.26125 0.35375,-0.56375 0.28625,-0.90875 m 1.55375,1.7325 -1.17375,0.37875 -0.13125,-0.665 c -0.1525,0.2925 -0.36125,0.53125 -0.62625,0.71375 -0.27625,0.18625 -0.59875,0.3175 -0.96875,0.3925 -0.775,0.155 -1.44,0.0775 -1.99625,-0.23375 -0.56375,-0.29875 -0.9125,-0.7875 -1.04875,-1.46 -0.11375,-0.57375 0.035,-1.11375 0.44625,-1.6225 0.40875,-0.50375 0.99625,-0.83375 1.7525,-0.985 0.35125,-0.07 0.67625,-0.09 0.97375,-0.0612 0.2925,0.0375 0.58375,0.135 0.8725,0.28875 l -0.0925,-0.46875 c -0.0725,-0.365 -0.2875,-0.58875 -0.64125,-0.66875 -0.26875,-0.0587 -0.65625,-0.0362 -1.16375,0.065 -0.30625,0.06 -0.62125,0.1575 -0.94625,0.28625 -0.32875,0.13625 -0.63375,0.2975 -0.91875,0.48125 l 0.045,-1.205 c 0.305,-0.13625 0.64375,-0.2625 1.0125,-0.38125 0.37,-0.1175 0.70375,-0.205 1.005,-0.26375 0.72375,-0.14625 1.3225,-0.10625 1.8,0.11875 0.54625,0.25625 0.89125,0.73625 1.03,1.44125 l 0.77,3.84875 z" style="fill:#0072ba;fill-opacity:1;fill-rule:nonzero;stroke:none" id="path436"/>
    <path inkscape:connector-curvature="0" d="m 372.05346,624.35374 -1.19625,0.40375 -0.17,-0.78125 c -0.24375,0.36875 -0.5075,0.65625 -0.79375,0.86125 -0.29375,0.21375 -0.66625,0.37 -1.11375,0.46875 -0.67625,0.145 -1.255,0.0812 -1.73625,-0.195 -0.515,-0.295 -0.84875,-0.77875 -0.99375,-1.4475 l -0.81125,-3.71875 1.1775,-0.42125 0.8475,3.88125 c 0.07,0.32625 0.25875,0.5575 0.5625,0.69 0.30375,0.13375 0.6625,0.15625 1.07625,0.0662 0.545,-0.12 0.9375,-0.3725 1.1725,-0.76125 0.24,-0.38625 0.3,-0.855 0.17875,-1.4075 l -0.65375,-2.99875 1.1925,-0.425 1.26125,5.785 z" style="fill:#0072ba;fill-opacity:1;fill-rule:nonzero;stroke:none" id="path440"/>
    <path inkscape:connector-curvature="0" d="m 377.66621,621.95624 0.0275,1.1 c -0.0638,0.0325 -0.12125,0.0538 -0.175,0.0688 -0.30375,0.10875 -0.57875,0.195 -0.8225,0.2575 -0.64375,0.1625 -1.175,0.13125 -1.59625,-0.0962 -0.45125,-0.2475 -0.7625,-0.715 -0.94,-1.405 l -0.73125,-2.88 -1.01625,0.2575 0.19,-1.105 0.575,-0.145 -0.37125,-1.455 1.13,-0.5925 0.4425,1.74125 1.835,-0.46625 0.2525,0.9925 -1.83625,0.46625 0.73125,2.88 c 0.17,0.665 0.64375,0.8975 1.4275,0.69875 0.25125,-0.0638 0.495,-0.145 0.73,-0.2425 0.0412,-0.0113 0.0925,-0.0362 0.1475,-0.075" style="fill:#0072ba;fill-opacity:1;fill-rule:nonzero;stroke:none" id="path444"/>
    <path inkscape:connector-curvature="0" d="m 382.44896,616.83724 c -0.39375,-0.1725 -0.8275,-0.1875 -1.305,-0.0487 -0.5925,0.1725 -1.05125,0.51 -1.37375,1.01 -0.32875,0.5125 -0.41625,1.03125 -0.26375,1.55625 l 0.0875,0.1975 2.855,-2.715 z m 1.84375,-0.31875 -4.0375,3.815 c 0.29125,0.2275 0.58125,0.37875 0.87625,0.455 0.37625,0.095 0.7725,0.0812 1.19625,-0.0438 0.46375,-0.13375 0.89125,-0.3575 1.27875,-0.66375 0.30375,-0.24375 0.63,-0.58 0.98125,-1.00875 l 0.58375,1.03875 c -0.35,0.40875 -0.72125,0.75 -1.11375,1.02625 -0.40625,0.27875 -0.86,0.49125 -1.3625,0.6375 -0.98875,0.2875 -1.91,0.245 -2.76,-0.13125 -0.84875,-0.38 -1.39375,-0.99 -1.6375,-1.82875 -0.24375,-0.8275 -0.1125,-1.635 0.38625,-2.42125 0.495,-0.78 1.2175,-1.31 2.175,-1.5875 0.62875,-0.185 1.25625,-0.21125 1.88375,-0.0825 0.625,0.12625 1.1425,0.3925 1.55,0.795" style="fill:#0072ba;fill-opacity:1;fill-rule:nonzero;stroke:none" id="path448"/>
    <path inkscape:connector-curvature="0" d="m 364.43259,637.91937 c 0.09,0.51375 -0.0575,0.97375 -0.4425,1.37375 -0.39375,0.4075 -0.925,0.66875 -1.59875,0.785 -0.49625,0.0862 -0.9375,0.0812 -1.32625,-0.015 -0.40125,-0.0963 -0.7825,-0.29 -1.15125,-0.58 l 0.78375,-0.8 c 0.205,0.13875 0.42875,0.2375 0.67875,0.2975 0.2475,0.0675 0.5025,0.08 0.76125,0.0337 0.30875,-0.0538 0.55875,-0.15125 0.7425,-0.29625 0.2275,-0.17625 0.32125,-0.38625 0.27625,-0.6325 -0.0612,-0.36875 -0.66375,-0.5925 -1.79875,-0.675 -1.13625,-0.0825 -1.775,-0.53 -1.915,-1.34625 -0.0888,-0.5025 0.0675,-0.96375 0.46875,-1.3825 0.3925,-0.40875 0.90375,-0.66875 1.5325,-0.7775 0.37125,-0.065 0.74625,-0.0587 1.12375,0.0213 0.37125,0.0775 0.7125,0.21125 1.02625,0.4 l -0.64625,0.9075 c -0.21375,-0.13 -0.4325,-0.2275 -0.6525,-0.29125 -0.23125,-0.065 -0.46,-0.075 -0.69375,-0.0362 -0.275,0.0475 -0.50625,0.14875 -0.68875,0.3 -0.1825,0.15625 -0.25375,0.35625 -0.20875,0.60375 0.0575,0.35 0.65625,0.56375 1.7925,0.64375 1.1375,0.0838 1.78125,0.57125 1.93625,1.46625" style="fill:#0072ba;fill-opacity:1;fill-rule:nonzero;stroke:none" id="path452"/>
    <path inkscape:connector-curvature="0" d="m 370.31997,636.28362 c -0.0675,-0.31375 -0.27625,-0.54 -0.635,-0.6775 -0.36875,-0.13 -0.73625,-0.15875 -1.1075,-0.0825 -0.41375,0.0837 -0.7525,0.2425 -1.01625,0.47375 -0.3125,0.2725 -0.43625,0.57625 -0.36625,0.9125 0.08,0.3975 0.295,0.66125 0.64375,0.78875 0.30625,0.1125 0.70375,0.11875 1.18875,0.0187 0.40625,-0.0825 0.7425,-0.2575 1.00875,-0.525 0.2575,-0.26 0.35375,-0.56375 0.28375,-0.90875 m 1.56125,1.725 -1.17125,0.38375 -0.13625,-0.665 c -0.15,0.29375 -0.35875,0.53375 -0.6225,0.7175 -0.275,0.18875 -0.595,0.32125 -0.965,0.395 -0.77625,0.16 -1.44125,0.085 -1.99875,-0.22125 -0.56375,-0.29875 -0.915,-0.78375 -1.05375,-1.4575 -0.11875,-0.57375 0.0275,-1.11375 0.43625,-1.6225 0.41,-0.50875 0.9925,-0.84 1.75125,-0.995 0.35,-0.0713 0.675,-0.0937 0.975,-0.065 0.29125,0.0362 0.58,0.13125 0.8725,0.285 l -0.0962,-0.46875 c -0.0763,-0.36375 -0.2925,-0.5875 -0.645,-0.6675 -0.26875,-0.055 -0.65625,-0.03 -1.16,0.0725 -0.31,0.0625 -0.625,0.15875 -0.9475,0.29125 -0.32875,0.13625 -0.63375,0.29875 -0.91625,0.485 l 0.04,-1.20625 c 0.3025,-0.1375 0.63875,-0.265 1.01,-0.38625 0.37125,-0.11625 0.70375,-0.2075 1.0025,-0.26875 0.72375,-0.1475 1.3225,-0.11 1.8025,0.1125 0.5475,0.25125 0.89,0.73125 1.035,1.43625 l 0.7875,3.845 z" style="fill:#0072ba;fill-opacity:1;fill-rule:nonzero;stroke:none" id="path456"/>
    <path inkscape:connector-curvature="0" d="m 379.19209,633.20924 c -0.1425,-0.54625 -0.48625,-0.95875 -1.03125,-1.23625 -0.5475,-0.27875 -1.13875,-0.335 -1.775,-0.17 -0.62625,0.1625 -1.1125,0.4975 -1.4525,1.00625 -0.345,0.50875 -0.445,1.03625 -0.3,1.58125 0.1425,0.56 0.4875,0.975 1.03125,1.2475 0.54375,0.2725 1.1325,0.325 1.77,0.15875 0.66375,-0.17125 1.16125,-0.49375 1.4925,-0.9675 0.33375,-0.475 0.4225,-1.015 0.265,-1.62 m -0.9675,-3.66125 -0.96625,0.35875 -1.3375,-0.3975 -1.07125,1.02125 -1.0675,0.16875 1.91875,-2.035 2.52375,0.88375 z m 2.19875,3.3475 c 0.2325,0.8925 0.0925,1.70875 -0.42375,2.4475 -0.5175,0.74625 -1.2775,1.24875 -2.275,1.5075 -1.00875,0.26125 -1.9275,0.1925 -2.75375,-0.205 -0.825,-0.3975 -1.35,-1.03125 -1.57875,-1.90125 -0.215,-0.84 -0.0525,-1.645 0.49,-2.42 0.535,-0.7575 1.28,-1.2625 2.235,-1.51 0.98125,-0.25375 1.88875,-0.1825 2.725,0.215 0.835,0.3975 1.3625,1.02 1.58125,1.86625" style="fill:#0072ba;fill-opacity:1;fill-rule:nonzero;stroke:none" id="path460"/>
    <path inkscape:connector-curvature="0" d="m 388.72084,633.77449 -1.17,0.48 -1.05,-3.82125 c -0.10875,-0.39875 -0.31375,-0.6525 -0.61875,-0.76625 -0.31,-0.1075 -0.68375,-0.10125 -1.1275,0.02 -0.49375,0.135 -0.86125,0.395 -1.10375,0.7775 -0.24,0.3825 -0.285,0.84125 -0.13875,1.3775 l 0.86,3.1275 -1.155,0.47375 -1.56875,-5.7075 1.155,-0.47875 0.215,0.7875 c 0.195,-0.38125 0.4275,-0.685 0.70125,-0.915 0.275,-0.2225 0.6275,-0.39375 1.06125,-0.51125 0.72,-0.19875 1.34625,-0.1625 1.88,0.105 0.52375,0.2775 0.875,0.735 1.05,1.375 l 1.01,3.67625 z" style="fill:#0072ba;fill-opacity:1;fill-rule:nonzero;stroke:none" id="path464"/>
    <path inkscape:connector-curvature="0" d="m 393.94434,627.32249 c -0.39875,-0.1575 -0.835,-0.16125 -1.305,-0.006 -0.58875,0.19 -1.0375,0.54125 -1.34125,1.0525 -0.3125,0.52125 -0.38375,1.0425 -0.215,1.56125 l 0.0912,0.19625 2.77,-2.80375 z m 1.83375,-0.37375 -3.91625,3.93875 c 0.295,0.21625 0.59375,0.35875 0.88875,0.42625 0.37875,0.0825 0.775,0.055 1.19625,-0.08 0.45875,-0.15 0.87875,-0.385 1.25625,-0.705 0.29375,-0.2525 0.61,-0.59875 0.95,-1.03875 l 0.61625,1.02125 c -0.3375,0.4175 -0.69875,0.77125 -1.08375,1.06 -0.3975,0.29125 -0.8425,0.5175 -1.34,0.67875 -0.9825,0.32 -1.9025,0.305 -2.765,-0.045 -0.85875,-0.35375 -1.4225,-0.945 -1.69375,-1.77625 -0.2675,-0.81875 -0.16375,-1.63 0.31125,-2.43 0.47,-0.7975 1.17625,-1.35 2.12375,-1.65625 0.6225,-0.20375 1.25,-0.25125 1.88125,-0.14125 0.63,0.10625 1.155,0.35625 1.575,0.7475" style="fill:#0072ba;fill-opacity:1;fill-rule:nonzero;stroke:none" id="path468"/>
    <path inkscape:connector-curvature="0" d="m 401.06709,616.57599 c -3.69625,2.185 -16.2825,7.01 -32.5675,10.4775 -11.94875,2.94 -32.41625,5.91875 -36.715,4.9 -0.6025,-0.15125 -0.225,0.075 -1.65625,0.6775 0,0 0,0.755 0.97875,1.13375 2.6125,1.0025 19.45,-0.1525 35.585,-3.9975 23.065,-4.975 34.61625,-10.27375 35.1275,-11.2325 0,0 -0.5275,-2.035 -0.7525,-1.95875" style="fill:#f9b51d;fill-opacity:1;fill-rule:nonzero;stroke:none" id="path472"/>
    <path inkscape:connector-curvature="0" d="m 401.06709,616.57599 c -3.69625,2.185 -16.2825,7.01 -32.5675,10.4775 -11.94875,2.94 -32.41625,5.91875 -36.715,4.9 -0.6025,-0.15125 -0.225,0.075 -1.65625,0.6775 0,0 0,0.755 0.97875,1.13375 2.6125,1.0025 19.45,-0.1525 35.585,-3.9975 23.065,-4.975 34.61625,-10.27375 35.1275,-11.2325 0,0 -0.5275,-2.035 -0.7525,-1.95875 z" style="fill:none;stroke:#ffffff;stroke-width:0.1075;stroke-linecap:butt;stroke-linejoin:miter;stroke-miterlimit:4;stroke-opacity:1;stroke-dasharray:none" id="path476"/>
    <path inkscape:connector-curvature="0" d="m 340.77171,651.79024 0,-0.20125 c 0.1175,-0.0675 0.23,-0.14625 0.335,-0.2375 0.0263,-0.7 0.0412,-1.43125 0.0412,-2.19125 0,-0.5975 -0.005,-1.16125 -0.0163,-1.69125 -0.007,-0.3775 -0.0213,-0.595 -0.045,-0.6525 -0.0112,-0.0325 -0.0325,-0.0575 -0.0662,-0.075 -0.0325,-0.0163 -0.18875,-0.0388 -0.4675,-0.0675 l 0,-0.32625 c 0.41375,0.0137 0.7975,0.02 1.15,0.02 0.34375,0 0.6675,-0.006 0.97375,-0.02 l 0,0.32625 c -0.29375,0.0225 -0.46375,0.0538 -0.50875,0.0925 -0.0263,0.0238 -0.0462,0.0713 -0.0587,0.1425 -0.0113,0.07 -0.02,0.48875 -0.0263,1.255 l -0.02,1.88875 c 0,0.355 0.008,0.76375 0.0225,1.23 0.27875,0.0175 0.48625,0.0263 0.62125,0.0263 0.4025,0 0.7425,-0.0388 1.0175,-0.11625 0.0562,-0.2325 0.1125,-0.51125 0.1675,-0.83375 l 0.2825,0 c -0.0475,0.3775 -0.0913,0.845 -0.12875,1.405 -0.20375,0.0175 -0.39,0.0263 -0.56125,0.0263 l -1.1625,-0.0175 -0.52,-0.009 c -0.23875,-0.003 -0.58375,0.006 -1.03,0.0263" style="fill:#39a642;fill-opacity:1;fill-rule:nonzero;stroke:none" id="path480"/>
    <path inkscape:connector-curvature="0" d="m 344.73172,651.79024 0,-0.20875 c 0.11375,-0.0625 0.2175,-0.135 0.3125,-0.2175 0.0425,-0.40375 0.0638,-1.25125 0.0638,-2.545 0,-0.8825 -0.008,-1.46625 -0.0225,-1.75375 -0.007,-0.1525 -0.0288,-0.24875 -0.0662,-0.28875 -0.0375,-0.04 -0.19625,-0.0738 -0.47625,-0.1025 l 0,-0.32625 c 0.505,0.0237 0.90375,0.035 1.1975,0.035 l 1.76875,-0.035 c 0.185,0 0.35375,0.009 0.50375,0.0275 l 0.0225,0.0438 c -0.0487,0.28375 -0.0825,0.6625 -0.1025,1.135 l -0.255,0 c -0.01,-0.3775 -0.0225,-0.57875 -0.0362,-0.605 -0.015,-0.0263 -0.0638,-0.05 -0.14625,-0.0738 -0.17875,-0.0462 -0.45,-0.07 -0.81625,-0.07 -0.18,0 -0.39,0.01 -0.63,0.0275 -0.0275,0.79875 -0.0437,1.435 -0.0475,1.90875 0.22875,0.0187 0.44375,0.0275 0.645,0.0275 0.29875,0 0.47625,-0.0125 0.53625,-0.035 0.0362,-0.0162 0.0625,-0.0537 0.0775,-0.1125 0.0125,-0.0462 0.0275,-0.21 0.045,-0.48875 l 0.27625,0 c -0.0113,0.4375 -0.015,0.7225 -0.015,0.855 l 0.015,0.875 -0.27625,0 c -0.015,-0.34 -0.035,-0.5375 -0.0575,-0.58875 -0.0125,-0.0312 -0.0425,-0.0538 -0.0875,-0.0663 -0.1075,-0.0287 -0.3475,-0.0437 -0.7225,-0.0437 -0.1175,0 -0.25625,0.01 -0.415,0.0275 -0.004,0.13625 -0.006,0.27625 -0.006,0.4175 0,0.73625 0.0113,1.30375 0.0325,1.7 l 0.6375,0.0125 c 0.3625,0 0.69375,-0.0238 0.99375,-0.07 0.0537,-0.24 0.105,-0.51125 0.155,-0.815 l 0.26625,0 c -0.0487,0.46125 -0.0775,0.9025 -0.0863,1.3275 -0.195,0.0175 -0.3825,0.0263 -0.56125,0.0263 -0.11875,0 -0.35125,-0.004 -0.69875,-0.0138 -0.32375,-0.009 -0.62,-0.0125 -0.8925,-0.0125 -0.3575,0 -0.735,0.009 -1.13125,0.0263" style="fill:#39a642;fill-opacity:1;fill-rule:nonzero;stroke:none" id="path484"/>
    <path inkscape:connector-curvature="0" d="m 351.57984,651.30924 c 0.18,0.0387 0.36375,0.0587 0.55125,0.0587 0.47875,0 0.8425,-0.0838 1.0925,-0.24875 0.2525,-0.165 0.455,-0.435 0.61,-0.81125 0.155,-0.37625 0.2325,-0.83875 0.2325,-1.38625 0,-0.72125 -0.15375,-1.27 -0.4625,-1.6475 -0.2725,-0.33625 -0.71625,-0.50375 -1.3325,-0.50375 -0.13375,0 -0.36375,0.0125 -0.69125,0.0388 l -0.0263,2.41625 c 0,1.0175 0.009,1.7125 0.0263,2.08375 m -1.30125,0.48125 0,-0.20125 c 0.1475,-0.10375 0.2525,-0.18125 0.315,-0.2325 0.0288,-0.455 0.045,-1.30625 0.045,-2.555 0,-0.54 -0.005,-0.99125 -0.015,-1.355 -0.009,-0.3625 -0.0238,-0.57 -0.0437,-0.62125 -0.009,-0.0262 -0.0213,-0.0462 -0.0412,-0.0587 -0.0312,-0.02 -0.18875,-0.0512 -0.4725,-0.0925 l 0,-0.32625 c 0.32375,0.0138 0.695,0.0188 1.115,0.0188 l 1.58375,-0.0188 c 0.57625,0 1.01375,0.0875 1.3125,0.26375 0.29875,0.17625 0.53625,0.445 0.71125,0.8075 0.17625,0.36125 0.26375,0.80125 0.26375,1.3175 0,0.66625 -0.13625,1.23875 -0.41125,1.71875 -0.275,0.48125 -0.6075,0.825 -1.0025,1.02875 -0.39375,0.20375 -0.815,0.30625 -1.2625,0.30625 l -1.2175,-0.0275 c -0.195,0 -0.48875,0.01 -0.88,0.0275" style="fill:#39a642;fill-opacity:1;fill-rule:nonzero;stroke:none" id="path488"/>
    <path inkscape:connector-curvature="0" d="m 357.10959,645.96749 -0.3175,0 0.74375,-0.86875 c 0.175,-0.20375 0.29375,-0.3275 0.355,-0.37 0.06,-0.0425 0.125,-0.0638 0.19,-0.0638 0.0812,0 0.1475,0.0288 0.1975,0.0863 0.05,0.0587 0.075,0.13125 0.075,0.22 0,0.0775 -0.02,0.1425 -0.0625,0.1975 -0.0412,0.0538 -0.1725,0.15125 -0.3925,0.29125 l -0.78875,0.5075 z m -1.43,5.8225 0,-0.20875 c 0.11375,-0.0625 0.2175,-0.135 0.3125,-0.2175 0.0437,-0.40375 0.0637,-1.25125 0.0637,-2.545 0,-0.88125 -0.007,-1.46625 -0.0213,-1.75375 -0.007,-0.1525 -0.03,-0.24875 -0.0662,-0.28875 -0.0375,-0.04 -0.19625,-0.0738 -0.4775,-0.1025 l 0,-0.32625 c 0.505,0.0237 0.905,0.0362 1.1975,0.0362 l 1.76875,-0.0362 c 0.18625,0 0.35375,0.01 0.50375,0.0275 l 0.0225,0.0437 c -0.0475,0.28375 -0.0813,0.66375 -0.1025,1.13625 l -0.25375,0 c -0.0113,-0.37875 -0.0238,-0.58 -0.0362,-0.60625 -0.015,-0.025 -0.0638,-0.05 -0.1475,-0.0725 -0.1775,-0.0475 -0.45,-0.0713 -0.81625,-0.0713 -0.17875,0 -0.38875,0.01 -0.63,0.0275 -0.0263,0.8 -0.0437,1.435 -0.0475,1.90875 0.23,0.0188 0.445,0.0275 0.64625,0.0275 0.2975,0 0.47625,-0.0125 0.535,-0.035 0.0375,-0.015 0.0625,-0.0538 0.0788,-0.1125 0.0125,-0.0462 0.0263,-0.20875 0.0437,-0.48875 l 0.2775,0 c -0.0113,0.43875 -0.0163,0.72375 -0.0163,0.855 l 0.0163,0.875 -0.2775,0 c -0.015,-0.34 -0.0337,-0.53625 -0.0575,-0.58875 -0.0125,-0.0312 -0.0412,-0.0537 -0.0862,-0.0662 -0.1075,-0.0288 -0.34875,-0.0425 -0.7225,-0.0425 -0.11875,0 -0.25625,0.009 -0.415,0.0263 -0.004,0.13625 -0.006,0.27625 -0.006,0.4175 0,0.73625 0.0112,1.30375 0.0312,1.7 l 0.63875,0.0125 c 0.3625,0 0.69375,-0.0237 0.99375,-0.07 0.0537,-0.23875 0.105,-0.51125 0.155,-0.815 l 0.26625,0 c -0.0487,0.46125 -0.0788,0.9025 -0.0875,1.3275 -0.195,0.0175 -0.38125,0.0263 -0.56125,0.0263 -0.11875,0 -0.35,-0.004 -0.6975,-0.0137 -0.32375,-0.009 -0.62125,-0.0125 -0.8925,-0.0125 -0.3575,0 -0.735,0.009 -1.1325,0.0263" style="fill:#39a642;fill-opacity:1;fill-rule:nonzero;stroke:none" id="path492"/>
    <path inkscape:connector-curvature="0" d="m 359.44109,651.79024 0,-0.325 c 0.255,-0.0237 0.4,-0.0488 0.435,-0.0738 0.025,-0.0163 0.0438,-0.0437 0.0575,-0.0825 0.0213,-0.0638 0.0362,-0.33125 0.0463,-0.8025 0.009,-0.47 0.0137,-0.9275 0.0137,-1.37 0,-0.82375 -0.006,-1.41375 -0.02,-1.76875 -0.015,-0.35375 -0.0375,-0.55125 -0.0675,-0.59375 -0.0312,-0.04 -0.125,-0.0675 -0.27875,-0.0813 l -0.18625,-0.0187 0,-0.32625 0.36375,0.0162 c 0.225,0.008 0.4025,0.0113 0.53625,0.0113 0.18125,0 0.47625,-0.005 0.88,-0.0163 0.21875,-0.007 0.38,-0.0112 0.4825,-0.0112 0.3825,0 0.66625,0.0437 0.84875,0.13125 0.18375,0.0875 0.3225,0.22 0.41875,0.39875 0.095,0.1775 0.1425,0.39875 0.1425,0.66375 0,0.47875 -0.14125,0.88125 -0.42125,1.20375 -0.2825,0.32375 -0.64125,0.485 -1.07625,0.485 -0.055,0 -0.115,-0.005 -0.17625,-0.015 -0.0613,-0.01 -0.12875,-0.025 -0.2,-0.0425 -0.0362,-0.0925 -0.0738,-0.1825 -0.115,-0.27 l 0.0738,-0.095 c 0.0475,0.0113 0.0913,0.0213 0.13125,0.0275 0.0387,0.008 0.0738,0.0113 0.1075,0.0113 0.21625,0 0.3925,-0.09 0.53,-0.27 0.13625,-0.18 0.20625,-0.43125 0.20625,-0.75375 0,-0.36 -0.0725,-0.62875 -0.21375,-0.805 -0.1425,-0.1775 -0.35,-0.26625 -0.625,-0.26625 -0.11125,0 -0.2425,0.0187 -0.39375,0.0588 -0.02,0.795 -0.0312,1.47 -0.0312,2.0225 0,0.18625 0.009,0.77875 0.025,1.78 0.006,0.395 0.0175,0.6225 0.0337,0.68125 0.009,0.0438 0.03,0.075 0.0612,0.0937 0.0463,0.0275 0.2275,0.0538 0.545,0.0775 l 0,0.325 c -0.38,-0.0175 -0.69875,-0.0263 -0.9575,-0.0263 -0.115,0 -0.5075,0.009 -1.17625,0.0263" style="fill:#39a642;fill-opacity:1;fill-rule:nonzero;stroke:none" id="path496"/>
    <path inkscape:connector-curvature="0" d="m 365.45671,647.67336 -0.67875,1.995 c 0.1975,0.0125 0.415,0.02 0.6525,0.02 0.24875,0 0.48625,-0.007 0.71375,-0.02 l -0.6875,-1.995 z m -2.10875,3.76375 c 0.2025,-0.0125 0.32625,-0.0375 0.3725,-0.0738 0.0325,-0.025 0.0838,-0.12375 0.15125,-0.295 0.13125,-0.335 0.29875,-0.8025 0.50125,-1.4 l 1.1375,-3.36375 0.4725,0 1.4525,4.1675 c 0.1875,0.525 0.30375,0.81375 0.3475,0.86375 0.0437,0.05 0.18,0.0838 0.4075,0.10125 l 0,0.3525 c -0.35,-0.0175 -0.67875,-0.0263 -0.98875,-0.0263 -0.37,0 -0.72375,0.009 -1.0575,0.0263 l 0,-0.3525 c 0.255,-0.0125 0.4025,-0.03 0.44125,-0.0512 0.0412,-0.0213 0.06,-0.06 0.06,-0.115 0,-0.0487 -0.045,-0.2125 -0.135,-0.4925 l -0.21125,-0.64875 c -0.26625,-0.007 -0.5625,-0.0112 -0.89125,-0.0112 -0.28625,0 -0.54625,0.004 -0.77875,0.0112 l -0.14125,0.43625 c -0.0387,0.11875 -0.0863,0.295 -0.14125,0.53 -0.0125,0.0538 -0.0187,0.10125 -0.0187,0.145 0,0.0575 0.02,0.0987 0.0612,0.1225 0.0425,0.0238 0.1925,0.0488 0.4525,0.0738 l 0,0.3525 c -0.21,-0.0175 -0.47125,-0.0263 -0.78375,-0.0263 -0.2975,0 -0.53375,0.009 -0.71,0.0263 l 0,-0.3525 z" style="fill:#39a642;fill-opacity:1;fill-rule:nonzero;stroke:none" id="path500"/>
    <path inkscape:connector-curvature="0" d="m 368.43047,651.79024 0,-0.325 c 0.2475,-0.0263 0.39125,-0.0512 0.4275,-0.0738 0.0225,-0.0163 0.04,-0.0412 0.0512,-0.0738 0.02,-0.0625 0.035,-0.2725 0.045,-0.62875 0.01,-0.55375 0.0162,-0.98875 0.0162,-1.3075 0,-0.43 -0.005,-0.975 -0.0137,-1.6375 -0.009,-0.49375 -0.03,-0.79625 -0.0613,-0.9075 -0.009,-0.0338 -0.025,-0.0588 -0.0512,-0.0775 -0.0337,-0.025 -0.1725,-0.0538 -0.41375,-0.085 l 0,-0.32625 c 0.4425,0.0187 0.72875,0.0275 0.8575,0.0275 l 1.61,-0.0275 c 0.34875,0 0.6025,0.0412 0.7625,0.1225 0.16,0.0812 0.28625,0.21125 0.38,0.39125 0.0925,0.17875 0.13875,0.39 0.13875,0.6325 0,0.31125 -0.075,0.5825 -0.22375,0.81625 -0.14875,0.23375 -0.4075,0.44 -0.775,0.62125 l 0.68375,1.245 0.53375,0.955 c 0.10125,0.155 0.175,0.24875 0.225,0.28125 0.05,0.0325 0.12875,0.0488 0.24125,0.0525 l 0,0.29875 -0.19,0.002 c -0.54375,0.006 -0.89375,0.0138 -1.05,0.0238 -0.1875,-0.35875 -0.465,-0.88 -0.83625,-1.5625 l -0.6625,-1.215 c 0.02,-0.0438 0.0362,-0.09 0.05,-0.13875 0.085,0.0125 0.14875,0.0187 0.18875,0.0187 0.19875,0 0.395,-0.0975 0.58875,-0.29125 0.1925,-0.195 0.28875,-0.47125 0.28875,-0.83125 0,-0.31375 -0.0762,-0.5575 -0.23,-0.73125 -0.1525,-0.17375 -0.38,-0.26 -0.685,-0.26 -0.0975,0 -0.2275,0.009 -0.39375,0.0263 l -0.02,1.14625 -0.0275,1.45125 c 0,0.32875 0.0113,0.75 0.0312,1.2625 0.0175,0.385 0.035,0.60125 0.0512,0.64875 0.0125,0.0338 0.0375,0.06 0.07,0.0812 0.045,0.03 0.19,0.0538 0.435,0.07 l 0,0.325 c -0.385,-0.0175 -0.725,-0.0263 -1.02375,-0.0263 -0.315,0 -0.65625,0.009 -1.01875,0.0263" style="fill:#39a642;fill-opacity:1;fill-rule:nonzero;stroke:none" id="path504"/>
    <path inkscape:connector-curvature="0" d="m 373.98709,651.79024 0,-0.325 c 0.1225,0 0.24875,-0.0137 0.3825,-0.04 0.0612,-0.0125 0.10625,-0.0338 0.13125,-0.0638 0.0263,-0.0288 0.045,-0.0838 0.0575,-0.165 0.0163,-0.11 0.0275,-0.51875 0.0387,-1.22375 0.006,-0.50125 0.01,-1.01375 0.01,-1.535 0,-1.02625 -0.003,-1.54875 -0.009,-1.56875 -0.005,-0.0188 -0.08,-0.0288 -0.22625,-0.0288 -0.29875,0 -0.55625,0.01 -0.77,0.0312 -0.12375,0.0137 -0.195,0.0263 -0.21125,0.0388 -0.015,0.0125 -0.0288,0.0362 -0.0375,0.0675 -0.009,0.0325 -0.0263,0.26 -0.0537,0.68125 l -0.27625,0 c 0.004,-0.495 -0.006,-0.92125 -0.0325,-1.28 l 0.035,-0.0312 c 0.675,0.0387 1.33125,0.0587 1.97,0.0587 0.635,0 1.34875,-0.02 2.1375,-0.0587 l 0.0337,0.0625 c -0.04,0.355 -0.07,0.77125 -0.0863,1.24875 l -0.26625,0 c -0.02,-0.43625 -0.0401,-0.6725 -0.0575,-0.70875 -0.0163,-0.0288 -0.05,-0.0488 -0.10375,-0.0588 -0.17125,-0.0337 -0.51125,-0.0512 -1.0225,-0.0512 -0.0425,0 -0.0675,0.008 -0.0762,0.0237 -0.009,0.0175 -0.0125,0.0863 -0.0125,0.20625 l -0.0187,2.60875 c 0,0.75625 0.004,1.22 0.015,1.39125 0.0113,0.1725 0.0375,0.2775 0.0788,0.3125 0.0275,0.0237 0.19625,0.0512 0.50625,0.0825 l 0,0.325 c -0.315,-0.0175 -0.65,-0.0263 -1.00375,-0.0263 -0.46625,0 -0.84375,0.009 -1.1325,0.0263" style="fill:#39a642;fill-opacity:1;fill-rule:nonzero;stroke:none" id="path508"/>
    <path inkscape:connector-curvature="0" d="m 377.65034,651.79024 0,-0.20875 c 0.11375,-0.0625 0.2175,-0.135 0.3125,-0.2175 0.0425,-0.40375 0.0637,-1.25125 0.0637,-2.545 0,-0.8825 -0.007,-1.46625 -0.0225,-1.75375 -0.007,-0.1525 -0.0288,-0.24875 -0.0663,-0.28875 -0.0375,-0.04 -0.19625,-0.0738 -0.47625,-0.1025 l 0,-0.32625 c 0.505,0.0237 0.90375,0.035 1.1975,0.035 l 1.76875,-0.035 c 0.185,0 0.35375,0.009 0.50375,0.0275 l 0.0225,0.0438 c -0.0487,0.28375 -0.0825,0.6625 -0.1025,1.135 l -0.255,0 c -0.01,-0.3775 -0.0225,-0.57875 -0.0362,-0.605 -0.015,-0.0263 -0.0637,-0.05 -0.14625,-0.0738 -0.17875,-0.0462 -0.45,-0.07 -0.81625,-0.07 -0.18,0 -0.39,0.01 -0.63,0.0275 -0.0275,0.79875 -0.0438,1.435 -0.0475,1.90875 0.22875,0.0187 0.44375,0.0275 0.645,0.0275 0.29875,0 0.47625,-0.0125 0.53625,-0.035 0.0362,-0.0162 0.0625,-0.0537 0.0775,-0.1125 0.0125,-0.0462 0.0275,-0.21 0.045,-0.48875 l 0.27625,0 c -0.0113,0.4375 -0.015,0.7225 -0.015,0.855 l 0.015,0.875 -0.27625,0 c -0.015,-0.34 -0.035,-0.5375 -0.0575,-0.58875 -0.0125,-0.0312 -0.0425,-0.0538 -0.0875,-0.0663 -0.1075,-0.0287 -0.3475,-0.0437 -0.7225,-0.0437 -0.1175,0 -0.25625,0.01 -0.415,0.0275 -0.004,0.13625 -0.006,0.27625 -0.006,0.4175 0,0.73625 0.0113,1.30375 0.0325,1.7 l 0.6375,0.0125 c 0.3625,0 0.69375,-0.0238 0.99375,-0.07 0.0537,-0.24 0.105,-0.51125 0.155,-0.815 l 0.26625,0 c -0.0487,0.46125 -0.0775,0.9025 -0.0863,1.3275 -0.195,0.0175 -0.3825,0.0263 -0.56125,0.0263 -0.11875,0 -0.35125,-0.004 -0.69875,-0.0138 -0.32375,-0.009 -0.62,-0.0125 -0.8925,-0.0125 -0.3575,0 -0.735,0.009 -1.13125,0.0263" style="fill:#39a642;fill-opacity:1;fill-rule:nonzero;stroke:none" id="path512"/>
    <path inkscape:connector-curvature="0" d="m 381.36622,651.79024 0,-0.325 0.19125,-0.0163 c 0.15625,-0.01 0.25375,-0.0425 0.29375,-0.0975 0.0387,-0.0538 0.0625,-0.2375 0.0675,-0.55 0.015,-0.63875 0.0238,-1.32875 0.0238,-2.07375 0,-0.395 -0.002,-0.845 -0.005,-1.34875 -0.004,-0.305 -0.0188,-0.49 -0.0438,-0.5575 -0.0125,-0.0338 -0.0362,-0.0613 -0.0712,-0.0825 -0.0337,-0.02 -0.185,-0.0425 -0.45625,-0.065 l 0,-0.32625 c 0.25875,0.007 0.5125,0.0112 0.76,0.0112 0.29,0 0.56875,-0.004 0.835,-0.0112 0.115,0.32875 0.23625,0.65375 0.36,0.9775 0.0888,0.23 0.47625,1.205 1.16625,2.92625 0.73,-1.7675 1.24,-3.06875 1.5325,-3.90375 0.25625,0.0137 0.5,0.02 0.73125,0.02 0.27,0 0.53125,-0.006 0.785,-0.02 l 0,0.32625 c -0.28125,0.02 -0.44,0.05 -0.47625,0.0888 -0.0362,0.0387 -0.06,0.1575 -0.07,0.3575 -0.0163,0.325 -0.0238,0.94375 -0.0238,1.85625 0,0.46 0.004,0.945 0.0112,1.4575 0.007,0.51125 0.0225,0.80125 0.0438,0.8675 0.015,0.0388 0.0375,0.0688 0.0637,0.09 0.0288,0.02 0.17875,0.045 0.45125,0.0738 l 0,0.325 c -0.3475,-0.0175 -0.6575,-0.0263 -0.93,-0.0263 -0.2725,0 -0.64625,0.009 -1.1175,0.0263 l 0,-0.325 0.19,-0.009 c 0.14875,-0.008 0.24375,-0.0325 0.28125,-0.075 0.0375,-0.0425 0.0613,-0.155 0.0713,-0.3375 0.0112,-0.1825 0.0162,-0.6125 0.0162,-1.28875 l 0,-2.34125 c -0.33,0.79875 -0.75,1.8475 -1.26375,3.1425 -0.21,0.5325 -0.37375,0.9675 -0.49125,1.30375 l -0.2125,0 c -0.16,-0.445 -0.37625,-1.0075 -0.64625,-1.6875 l -1.1125,-2.75875 0,0.52625 c 0,1.4575 0.006,2.4625 0.015,3.0125 0.007,0.2225 0.0325,0.36 0.075,0.41125 0.0425,0.0513 0.2025,0.085 0.47875,0.10125 l 0,0.325 c -0.21875,-0.0175 -0.43625,-0.0263 -0.655,-0.0263 -0.32375,0 -0.61375,0.009 -0.86875,0.0263" style="fill:#39a642;fill-opacity:1;fill-rule:nonzero;stroke:none" id="path516"/>
    <path inkscape:connector-curvature="0" d="m 388.11784,651.79024 0,-0.20875 c 0.11375,-0.0625 0.2175,-0.135 0.3125,-0.2175 0.0425,-0.40375 0.0638,-1.25125 0.0638,-2.545 0,-0.8825 -0.008,-1.46625 -0.0225,-1.75375 -0.007,-0.1525 -0.0288,-0.24875 -0.0662,-0.28875 -0.0375,-0.04 -0.19625,-0.0738 -0.47625,-0.1025 l 0,-0.32625 c 0.505,0.0237 0.90375,0.035 1.1975,0.035 l 1.76875,-0.035 c 0.185,0 0.35375,0.009 0.50375,0.0275 l 0.0225,0.0438 c -0.0487,0.28375 -0.0825,0.6625 -0.1025,1.135 l -0.255,0 c -0.01,-0.3775 -0.0225,-0.57875 -0.0362,-0.605 -0.015,-0.0263 -0.0638,-0.05 -0.14625,-0.0738 -0.17875,-0.0462 -0.45,-0.07 -0.81625,-0.07 -0.18,0 -0.39,0.01 -0.63,0.0275 -0.0275,0.79875 -0.0437,1.435 -0.0475,1.90875 0.22875,0.0187 0.44375,0.0275 0.645,0.0275 0.29875,0 0.47625,-0.0125 0.53625,-0.035 0.0362,-0.0162 0.0625,-0.0537 0.0775,-0.1125 0.0125,-0.0462 0.0275,-0.21 0.045,-0.48875 l 0.27625,0 c -0.0113,0.4375 -0.015,0.7225 -0.015,0.855 l 0.015,0.875 -0.27625,0 c -0.015,-0.34 -0.035,-0.5375 -0.0575,-0.58875 -0.0125,-0.0312 -0.0425,-0.0538 -0.0875,-0.0663 -0.1075,-0.0287 -0.3475,-0.0437 -0.7225,-0.0437 -0.1175,0 -0.25625,0.01 -0.415,0.0275 -0.004,0.13625 -0.006,0.27625 -0.006,0.4175 0,0.73625 0.0113,1.30375 0.0325,1.7 l 0.6375,0.0125 c 0.3625,0 0.69375,-0.0238 0.99375,-0.07 0.0538,-0.24 0.105,-0.51125 0.155,-0.815 l 0.26625,0 c -0.0488,0.46125 -0.0775,0.9025 -0.0863,1.3275 -0.195,0.0175 -0.3825,0.0263 -0.56125,0.0263 -0.11875,0 -0.35125,-0.004 -0.69875,-0.0138 -0.32375,-0.009 -0.62,-0.0125 -0.8925,-0.0125 -0.3575,0 -0.735,0.009 -1.13125,0.0263" style="fill:#39a642;fill-opacity:1;fill-rule:nonzero;stroke:none" id="path520"/>
    <path inkscape:connector-curvature="0" d="m 391.85084,651.79024 0,-0.325 c 0.26125,-0.0137 0.41375,-0.0337 0.45875,-0.0625 0.0312,-0.0213 0.0525,-0.055 0.0675,-0.10125 0.0238,-0.0612 0.0387,-0.28 0.0437,-0.655 0.0125,-0.62125 0.0175,-1.08875 0.0175,-1.405 l -0.006,-1.64125 c 0,-0.43375 -0.0125,-0.685 -0.035,-0.7525 -0.0125,-0.0375 -0.0337,-0.0663 -0.0612,-0.085 -0.0425,-0.03 -0.20375,-0.06 -0.485,-0.0888 l 0,-0.32625 c 0.335,0.0137 0.5825,0.02 0.74375,0.02 0.1775,0 0.38,-0.006 0.60625,-0.02 0.49625,0.7625 1.055,1.58875 1.67875,2.48 0.415,0.59625 0.7725,1.08875 1.07375,1.4775 l 0,-1.53875 c 0,-0.58375 -0.006,-1.0875 -0.015,-1.50875 -0.009,-0.2525 -0.0275,-0.40625 -0.0525,-0.46375 -0.0125,-0.03 -0.0362,-0.0525 -0.07,-0.0662 -0.035,-0.0125 -0.185,-0.0312 -0.45,-0.0538 l 0,-0.32625 c 0.2325,0.0137 0.465,0.02 0.695,0.02 0.31625,0 0.60375,-0.006 0.86,-0.02 l 0,0.32625 c -0.23875,0.0175 -0.3825,0.0388 -0.43125,0.0625 -0.0288,0.0125 -0.05,0.03 -0.0675,0.0538 -0.0163,0.0237 -0.03,0.0525 -0.0387,0.0888 -0.015,0.0625 -0.0238,0.26125 -0.0263,0.5975 l -0.0113,1.5525 -0.006,1.56375 c 0,0.4175 0.007,0.83625 0.0213,1.25625 l -0.0412,0.0538 c -0.26125,-0.0562 -0.44375,-0.0937 -0.5525,-0.1125 -0.55125,-0.73625 -1.21625,-1.66125 -1.995,-2.775 -0.39375,-0.56375 -0.7125,-1.0375 -0.955,-1.4225 l 0,1.5075 c 0,0.41125 0.005,0.90625 0.0163,1.485 0.006,0.42625 0.0225,0.67125 0.045,0.73625 0.009,0.0275 0.025,0.05 0.0475,0.0662 0.0425,0.0275 0.19625,0.0538 0.4625,0.0775 l 0,0.325 c -0.345,-0.0175 -0.59125,-0.0263 -0.74125,-0.0263 -0.12375,0 -0.39,0.009 -0.79625,0.0263" style="fill:#39a642;fill-opacity:1;fill-rule:nonzero;stroke:none" id="path524"/>
    <path inkscape:connector-curvature="0" d="m 398.14596,651.79024 0,-0.325 c 0.1225,0 0.24875,-0.0137 0.3825,-0.04 0.0613,-0.0125 0.10625,-0.0338 0.13125,-0.0638 0.0263,-0.0288 0.045,-0.0838 0.0575,-0.165 0.0162,-0.11 0.0275,-0.51875 0.0387,-1.22375 0.006,-0.50125 0.01,-1.01375 0.01,-1.535 0,-1.02625 -0.002,-1.54875 -0.009,-1.56875 -0.005,-0.0188 -0.08,-0.0288 -0.22625,-0.0288 -0.29875,0 -0.55625,0.01 -0.77,0.0312 -0.12375,0.0137 -0.195,0.0263 -0.21125,0.0388 -0.015,0.0125 -0.0288,0.0362 -0.0375,0.0675 -0.009,0.0325 -0.0263,0.26 -0.0537,0.68125 l -0.27625,0 c 0.004,-0.495 -0.006,-0.92125 -0.0325,-1.28 l 0.035,-0.0312 c 0.675,0.0387 1.33125,0.0587 1.97,0.0587 0.635,0 1.34875,-0.02 2.1375,-0.0587 l 0.0337,0.0625 c -0.04,0.355 -0.07,0.77125 -0.0863,1.24875 l -0.26625,0 c -0.02,-0.43625 -0.04,-0.6725 -0.0575,-0.70875 -0.0162,-0.0288 -0.05,-0.0488 -0.1037,-0.0588 -0.17125,-0.0337 -0.51125,-0.0512 -1.0225,-0.0512 -0.0425,0 -0.0675,0.008 -0.0763,0.0237 -0.009,0.0175 -0.0125,0.0863 -0.0125,0.20625 l -0.0188,2.60875 c 0,0.75625 0.004,1.22 0.015,1.39125 0.0113,0.1725 0.0375,0.2775 0.0788,0.3125 0.0275,0.0237 0.19625,0.0512 0.50625,0.0825 l 0,0.325 c -0.315,-0.0175 -0.65,-0.0263 -1.00375,-0.0263 -0.46625,0 -0.84375,0.009 -1.1325,0.0263" style="fill:#39a642;fill-opacity:1;fill-rule:nonzero;stroke:none" id="path528"/>
    <path inkscape:connector-curvature="0" d="m 349.32272,641.18537 -8.81875,0 1.85125,-1.85875 -1.65375,-1.6425 4.06375,-4.07 1.8775,-0.20875 0.82,0.82625 1.86,-1.85625 0,8.81 z" style="fill:#39a642;fill-opacity:1;fill-rule:nonzero;stroke:none" id="path532"/>
  </g>
</svg>